<?xml version="1.0" encoding="UTF-8" standalone="no"?>
<!-- Created with Inkscape (http://www.inkscape.org/) -->

<svg
   xmlns:dc="http://purl.org/dc/elements/1.1/"
   xmlns:cc="http://creativecommons.org/ns#"
   xmlns:rdf="http://www.w3.org/1999/02/22-rdf-syntax-ns#"
   xmlns:svg="http://www.w3.org/2000/svg"
   xmlns="http://www.w3.org/2000/svg"
   xmlns:sodipodi="http://sodipodi.sourceforge.net/DTD/sodipodi-0.dtd"
   xmlns:inkscape="http://www.inkscape.org/namespaces/inkscape"
   width="210mm"
   height="297mm"
   viewBox="0 0 210 297"
   version="1.1"
   id="svg8"
   inkscape:version="0.92.5 (2060ec1f9f, 2020-04-08)"
   sodipodi:docname="car.svg">
  <defs
     id="defs2" />
  <sodipodi:namedview
     id="base"
     pagecolor="#ffffff"
     bordercolor="#666666"
     borderopacity="1.0"
     inkscape:pageopacity="0.0"
     inkscape:pageshadow="2"
     inkscape:zoom="2.0848936"
     inkscape:cx="110.1724"
     inkscape:cy="998.97617"
     inkscape:document-units="mm"
     inkscape:current-layer="layer1"
     showgrid="false"
     inkscape:window-width="1366"
     inkscape:window-height="717"
     inkscape:window-x="0"
     inkscape:window-y="0"
     inkscape:window-maximized="1" />
  <metadata
     id="metadata5">
    <rdf:RDF>
      <cc:Work
         rdf:about="">
        <dc:format>image/svg+xml</dc:format>
        <dc:type
           rdf:resource="http://purl.org/dc/dcmitype/StillImage" />
        <dc:title></dc:title>
      </cc:Work>
    </rdf:RDF>
  </metadata>
  <g
     inkscape:label="Layer 1"
     inkscape:groupmode="layer"
     id="layer1">
    <path
       style="opacity:1;fill:#00ffff;fill-opacity:1;fill-rule:nonzero;stroke:#000000;stroke-width:2.47389007;stroke-linecap:round;stroke-linejoin:round;stroke-miterlimit:4;stroke-dasharray:none;stroke-dashoffset:67.54016113;stroke-opacity:1;paint-order:normal"
       d="M 20.865234 45.246094 C 17.809455 45.246094 15.347656 47.705939 15.347656 50.761719 L 15.347656 109.03906 L 15.347656 167.31641 C 15.347656 170.37218 17.809455 172.83203 20.865234 172.83203 L 39.570312 172.83203 C 42.626091 172.83203 45.085937 170.37218 45.085938 167.31641 L 45.085938 121.99023 L 65.65625 121.99023 L 68.650391 132.05469 L 58.732422 132.05469 C 54.62259 132.05469 51.314453 135.36282 51.314453 139.47266 L 51.314453 160.58789 C 51.314453 164.69773 54.62259 168.00586 58.732422 168.00586 L 96.671875 168.00586 C 100.78171 168.00586 104.08984 164.69773 104.08984 160.58789 L 104.08984 139.47266 C 104.08984 135.36282 100.78171 132.05469 96.671875 132.05469 L 86.650391 132.05469 L 89.644531 121.99023 L 111.6582 121.99023 L 111.6582 157.73242 C 111.6582 160.7882 114.12 163.24805 117.17578 163.24805 L 149.64062 163.24805 C 152.69641 163.24805 154.13502 160.61251 155.15625 157.73242 L 167.83008 121.99023 L 183.4082 121.99023 L 185.97656 130.62305 L 174.10938 130.62305 C 170.655 130.62305 167.875 133.405 167.875 136.85938 L 167.875 151.24805 C 167.875 154.70242 170.655 157.48242 174.10938 157.48242 L 216.79688 157.48242 C 220.25122 157.48242 223.0332 154.70242 223.0332 151.24805 L 223.0332 136.85938 C 223.0332 133.405 220.25122 130.62305 216.79688 130.62305 L 204.82812 130.62305 L 207.39648 121.99023 L 229.58984 121.99023 L 229.58984 162.0293 C 229.58984 163.86225 230.25114 165.33789 231.07227 165.33789 L 239.79688 165.33789 C 240.61797 165.33789 241.00487 163.75686 241.2793 162.0293 L 247.73047 121.42383 C 253.08241 119.81094 256.9734 114.90458 257.07812 109.03906 C 256.97341 103.17354 253.08241 98.267179 247.73047 96.654297 L 241.2793 56.048828 C 241.00488 54.321267 240.61797 52.740234 239.79688 52.740234 L 231.07227 52.740234 C 230.25114 52.740234 229.58984 54.215878 229.58984 56.048828 L 229.58984 96.087891 L 207.39648 96.087891 L 204.82812 87.455078 L 216.79688 87.455078 C 220.25122 87.455078 223.0332 84.673123 223.0332 81.21875 L 223.0332 66.830078 C 223.0332 63.375705 220.25122 60.595703 216.79688 60.595703 L 174.10938 60.595703 C 170.655 60.595703 167.875 63.375705 167.875 66.830078 L 167.875 81.21875 C 167.875 84.673123 170.655 87.455078 174.10938 87.455078 L 185.97656 87.455078 L 183.4082 96.087891 L 167.83008 96.087891 L 155.15625 60.345703 C 154.13502 57.465616 152.6964 54.830078 149.64062 54.830078 L 117.17578 54.830078 C 114.12 54.830078 111.6582 57.289921 111.6582 60.345703 L 111.6582 96.087891 L 89.644531 96.087891 L 86.650391 86.023438 L 96.671875 86.023438 C 100.78171 86.023437 104.08984 82.715304 104.08984 78.605469 L 104.08984 57.490234 C 104.08984 53.380399 100.78171 50.072266 96.671875 50.072266 L 58.732422 50.072266 C 54.622587 50.072266 51.314453 53.380399 51.314453 57.490234 L 51.314453 78.605469 C 51.314453 82.715304 54.622587 86.023437 58.732422 86.023438 L 68.650391 86.023438 L 65.65625 96.087891 L 45.085938 96.087891 L 45.085938 50.761719 C 45.085938 47.705939 42.626092 45.246094 39.570312 45.246094 L 20.865234 45.246094 z M 137.74414 96.087891 A 28.085939 12.951169 0 0 1 165.83008 109.03906 A 28.085939 12.951169 0 0 1 137.74414 121.99023 A 28.085939 12.951169 0 0 1 121.74805 119.67969 L 121.74805 98.414062 A 28.085939 12.951169 0 0 1 137.74414 96.087891 z "
       transform="scale(0.26458333)"
       id="rect4518" />
  </g>
</svg>
